PathFileType	4	(X/Y/Z)	66_2_44_p0_0-268.trc
DataRate	CameraRate	NumFrames	NumMarkers	Units	OrigDataRate	OrigDataStartFrame	OrigNumFrames
60.0	60.0	6	27	m	60.0	67	269
Frame#	Time	RHip			RKnee			RAnkle			RBigToe			RSmallToe			RHeel			LHip			LKnee			LAnkle			LBigToe			LSmallToe			LHeel			Neck			Head			Nose			RShoulder			RElbow			RWrist			RThumb			RIndex			RPinky			LShoulder			LElbow			LWrist			LThumb			LIndex			LPinky			
		X1	Y1	Z1	X2	Y2	Z2	X3	Y3	Z3	X4	Y4	Z4	X5	Y5	Z5	X6	Y6	Z6	X7	Y7	Z7	X8	Y8	Z8	X9	Y9	Z9	X10	Y10	Z10	X11	Y11	Z11	X12	Y12	Z12	X13	Y13	Z13	X14	Y14	Z14	X15	Y15	Z15	X16	Y16	Z16	X17	Y17	Z17	X18	Y18	Z18	X19	Y19	Z19	X20	Y20	Z20	X21	Y21	Z21	X22	Y22	Z22	X23	Y23	Z23	X24	Y24	Z24	X25	Y25	Z25	X26	Y26	Z26	X27	Y27	Z27	
67	1.1166666666666667	0.5300560105118527	0.915220931159409	0.8067394671510087	0.5177620187120167	0.9871818924788315	1.2069446404058524	0.5234675883868707	1.1350033214930093	1.611282925298263	0.4967749196510762	0.8938659151990315	1.6487227337153556	0.5646181286419173	0.9209803082755057	1.6413705060219108	0.49791237815427114	1.2251511082112327	1.6636974947502652	0.33523247392274474	0.9298905813398882	0.801288973077995	0.3277265804622132	1.0474466049630333	1.2130326702501504	0.3175788892516466	1.1515435299564596	1.5882007758529688	0.3213282164355316	0.9281926110334581	1.6347904776905944	0.2660433816263284	1.0055758661165277	1.6406030232041093	0.3448013515169471	1.2279520934039216	1.6380819909633342	0.44743166905539034	0.8154117723502323	0.29152085984735954	0.44640399182820767	0.6113274181471791	0.06380724280662352	0.4312687515386696	0.6292070023984885	0.2342190068598902	0.5783912896676191	0.7713602519989712	0.34858950252550663	0.5832964867455567	0.648657049886175	0.5753426187161214	0.5015255624224794	0.6028332104567177	0.3825535439564442	0.44110860190168716	0.5734404964611712	0.29165559615537745	0.4812605504558468	0.5712314400965841	0.2646196499860696	0.46711082153299427	0.5156014837403196	0.31274278577038145	0.3084842855626808	0.8397553336334823	0.33481284570781733	0.24249533069573598	0.7137965359133582	0.5276654302785198	0.3187601301322472	0.6253738247609764	0.36530679712424247	0.3627983268655283	0.6041575005198732	0.3139084851578083	0.3784866276057242	0.5562508629617035	0.2738343048488347	0.33902602247257835	0.5117129315254406	0.30179388414035296
68	1.1333333333333333	0.5299630818791033	0.9156106907397643	0.806974874117196	0.5184663540508776	0.9893699701194903	1.2114775289175277	0.5176851431709845	1.1190164730313827	1.6104775021374658	0.490796538125634	0.8794425150350602	1.6430765553545361	0.563807561036446	0.9201715334981917	1.6444379493479138	0.49689581842534014	1.2266392297872704	1.6698933959369757	0.32992951759119493	0.9464313869220418	0.8069889487871367	0.3267933220110069	1.048932366135467	1.2174236399125455	0.3176474739854997	1.1517641500057776	1.5883760818619823	0.31803218503882547	0.9127707771598181	1.6287444049006055	0.26142138392854786	1.0208156227464178	1.6461656070942603	0.3456089338221775	1.231306392163631	1.6438922798799382	0.446447387333842	0.8172221640815736	0.2915456543770248	0.4513880007755421	0.613556403087952	0.06054781727636966	0.4361624248185526	0.6442209933387074	0.24038190261440134	0.5754517945041856	0.7864238980983255	0.3513933218088252	0.5785766346297557	0.6341486931852613	0.5709684051575937	0.49844302344324015	0.6153695579999835	0.38236747578583963	0.44118972838926845	0.5736249863853479	0.2917057779020428	0.46607609081162316	0.526646348204563	0.25980582752985	0.4633987855281687	0.5061663604168672	0.3128390363708473	0.3124200830395504	0.8237738762423491	0.32882766687954396	0.2425236257479692	0.7140093802302708	0.5240586320698744	0.3228078153420111	0.6251674985104653	0.36144772158113986	0.36244748033155116	0.6057491677319571	0.3136947497740237	0.37932088119358887	0.5580316606481114	0.2736548457160015	0.34181393490290357	0.5246972946621226	0.30274601489105707
69	1.15	0.5256581636740117	0.914068538322046	0.8066049098025279	0.5115386843862505	0.9707179601418935	1.2034105307899423	0.5130323845596968	1.102088443421637	1.6049926038982445	0.49109112243796993	0.8818351268360404	1.644163362783564	0.5588387638919046	0.9094637687326581	1.636497122612909	0.49260923595024964	1.2118483380626437	1.6652407440491737	0.3305159482235956	0.9298482343041864	0.8050076860225125	0.3260672295501554	1.0456509173413746	1.2120888618205128	0.31776307649105	1.1515126436267835	1.5883292449644717	0.32182986075106457	0.9287539959305704	1.6351250531320032	0.26656231188836976	1.0061417278015623	1.6408272969065452	0.34635579293421415	1.2313461068845104	1.6489436696553983	0.44570171498962985	0.820120206388604	0.2982185813740996	0.4526712777321686	0.6151747881222498	0.06410579138062697	0.43659405189488937	0.6461899767892973	0.24073462088461509	0.5755350901818891	0.7864925154110731	0.35139215597526774	0.5744767060143084	0.6217706438831904	0.5702166284170039	0.501881937292784	0.6019768665438288	0.37205500703960603	0.4484087866864993	0.5624785993250102	0.2921365917173418	0.47073949309967145	0.5310807157727152	0.25820513139006135	0.4665593783662242	0.5130908350349032	0.30484395156533345	0.31584808264144476	0.8358232298481743	0.3281180379801827	0.24315802493547065	0.7126376024102546	0.5203029839500293	0.323009186483429	0.6225003875094218	0.35448694426734156	0.3675418640024763	0.6170732576227362	0.3071334303268686	0.3817658072465665	0.5645901123383265	0.2595747184453289	0.3449194819184696	0.5371375672206982	0.2958066297259186
70	1.1666666666666667	0.5256331395063397	0.9141919944884827	0.8064300707503858	0.5120706922988029	0.9684417186525826	1.1983181788009496	0.5127485228564385	1.1188727192913808	1.6060166820852093	0.4910562869165915	0.879133535819545	1.6428156298786545	0.5638558972929284	0.921021380553391	1.6410763593199267	0.49798910314956013	1.225514369579006	1.6704315537856895	0.3313197786306316	0.9285543345934862	0.8012532825368149	0.32607286319997314	1.0454114588351557	1.2120058578324373	0.3178882880311401	1.151279448364342	1.5880430728679855	0.321906472625817	0.9279632725464315	1.6347338520492651	0.2666329979472826	1.0051542774391147	1.6402639301708295	0.34669937371034715	1.232297392099448	1.6439654929567569	0.44729592893453335	0.8175828707028208	0.2950573443401558	0.4477232497933647	0.6128949388935664	0.06755469449326015	0.4300062466825752	0.6420279920909352	0.2415618919306689	0.5753575138623552	0.7834657718225262	0.3445160446265941	0.5721243968455766	0.6334960601978692	0.5677869988220239	0.4977516780175578	0.5911956898442525	0.37569039472848126	0.4443141214567874	0.5755590525764388	0.29146004694198513	0.4686593485846552	0.5276558023832781	0.2554151656599584	0.46556402610860953	0.5100230527883373	0.3007129252782598	0.3163997860643034	0.8249773035518673	0.32851920705773635	0.2437727965991117	0.7113560515492918	0.5167132957450649	0.32599461664505336	0.6337638918561491	0.34704274164083454	0.3710028491548402	0.6293467133057966	0.3062934483107905	0.37656199015063774	0.5666207480814697	0.2565183047188839	0.3455216578123385	0.5363410971016094	0.29209772527933386
71	1.1833333333333333	0.5307459277381612	0.9270015893515099	0.8037589566264707	0.5090469204481671	0.9547850765138313	1.1945511160412552	0.5082164103920146	1.1016722955418117	1.6001764146491968	0.4932810067104827	0.8814726510691382	1.6481528683308	0.5646339314296429	0.921054665922786	1.6412586656258867	0.4893088382522989	1.206237227640435	1.6641288278330808	0.3314221820692015	0.928929929956393	0.8012616935237348	0.3261215116018809	1.045536293084755	1.2121489325759183	0.31901212241742694	1.1538831954607376	1.5934072112888429	0.318839076285859	0.9109862342864908	1.6278915447796245	0.27173056414115127	1.0044542236982021	1.6396286113116287	0.3527253382494806	1.2126357061523902	1.6462518941028903	0.44644765344580567	0.816657741082933	0.297942752705006	0.4481835662151024	0.6116445227683514	0.06804769897253597	0.4327972506926385	0.6186285608089797	0.24293147166595733	0.5755207210000507	0.7854489039850432	0.3553662737376154	0.5721946943101459	0.6333384762664965	0.5677325788749906	0.49785189983176975	0.5909348595507727	0.3794252978611378	0.4506546107437091	0.5912380881909897	0.29216487830200927	0.4655401190495309	0.5260305738679683	0.2560533883731899	0.46169904531552924	0.5001831948039731	0.3054891414789102	0.3124601317653911	0.822806376586382	0.32853102231706466	0.24078320280232612	0.6983660955072185	0.5162426875369954	0.32301384465318234	0.6229391584185298	0.34346769090103735	0.3643600009927548	0.6253310411477201	0.3005317155357454	0.3761669673675189	0.5669254174047161	0.25329031464323454	0.34604907536298074	0.5354237594521634	0.28795671308518095
72	1.2	0.5307473889948748	0.9268323618279548	0.8035037615285077	0.5114863080716864	0.9393771533615366	1.1951184213789514	0.5034511530022028	1.085406370988713	1.5945836147706114	0.4944888558162081	0.8785539929210914	1.6429624524559463	0.5588887437787237	0.9233640261706838	1.6429333414085272	0.4894856999582656	1.1913625721391445	1.6592680541564773	0.33123156665612646	0.9290919257926433	0.8011525953821816	0.32256460249522506	1.0309073892472784	1.2085986530217663	0.3180929128580127	1.1486113242256057	1.591330043803783	0.32262745463214193	0.9265787423703401	1.6286931223774883	0.27231764991463336	1.0045052619808543	1.6347268383512332	0.35126140243416704	1.2051722559360085	1.6393424977605877	0.4478163988966537	0.8150412787737134	0.2951578940924648	0.44698259053954276	0.6129792125793614	0.07068870077450568	0.42981813674723646	0.6318889944065583	0.24602400215636452	0.5752820404864014	0.7829102977335411	0.34851530485266285	0.5715429005961858	0.6338559356816904	0.5707800592507317	0.4911216859355376	0.5912027877585203	0.3832322124271504	0.4403364392332265	0.5949060879913456	0.2918113968151741	0.4648989555126989	0.5265895458315965	0.25824022542678327	0.45674352034294874	0.4894754451237288	0.30626379292746275	0.312569748251319	0.822997171450813	0.32883893896779665	0.24386450966367174	0.7110354541322641	0.5166195391003315	0.31900476946049283	0.6214553483181294	0.34742175550050486	0.36064653851363315	0.6278902670525376	0.304699347670763	0.3713937691982996	0.5684828754013274	0.2564144555662464	0.3457122682805919	0.5267724828935078	0.2966210200692854
